<?xml version="1.0" standalone="no"?>
<!DOCTYPE svg PUBLIC "-//W3C//DTD SVG 20010904//EN"
 "http://www.w3.org/TR/2001/REC-SVG-20010904/DTD/svg10.dtd">
<svg version="1.0" xmlns="http://www.w3.org/2000/svg"
 width="512.000000pt" height="512.000000pt" viewBox="0 0 512.000000 512.000000"
 preserveAspectRatio="xMidYMid meet">

<g transform="translate(0.000000,512.000000) scale(0.100000,-0.100000)"
fill="#000000" stroke="none">
<path d="M978 5099 c-23 -12 -46 -35 -58 -59 -20 -39 -20 -57 -20 -1230 l0
-1190 -41 20 c-61 32 -184 60 -259 60 -85 0 -203 -30 -283 -72 -81 -42 -203
-164 -245 -245 -42 -80 -72 -198 -72 -283 0 -85 30 -203 72 -283 42 -81 164
-203 245 -245 332 -174 733 -11 856 348 l22 65 5 1249 5 1249 50 -64 c112
-145 384 -397 621 -577 136 -102 193 -187 216 -321 40 -232 -117 -460 -350
-510 -29 -6 -69 -11 -88 -11 -53 0 -111 -34 -134 -80 -56 -109 20 -220 150
-220 225 0 481 144 608 342 87 137 116 240 116 413 0 120 -3 137 -33 225 -57
167 -142 279 -305 403 -160 121 -254 203 -407 356 -170 171 -221 235 -386 481
-88 133 -117 168 -147 183 -47 22 -92 21 -138 -4z m-244 -2733 c105 -51 161
-144 161 -266 0 -85 -21 -142 -74 -203 -82 -92 -237 -121 -353 -64 -160 79
-215 278 -118 430 80 126 246 170 384 103z"/>
<path d="M4840 3870 c-52 -15 -536 -153 -1075 -305 -539 -153 -990 -285 -1003
-293 -13 -8 -32 -32 -43 -53 -18 -37 -19 -68 -19 -1069 l0 -1030 -41 20 c-61
32 -184 60 -259 60 -85 0 -203 -30 -283 -72 -81 -42 -203 -164 -245 -245 -42
-80 -72 -198 -72 -283 0 -85 30 -203 72 -283 42 -81 164 -203 245 -245 133
-70 286 -88 427 -52 113 29 190 73 276 160 87 86 131 163 160 276 19 74 20
114 20 1029 l0 951 898 254 c493 139 903 255 910 258 9 3 12 -123 12 -612 l0
-616 -41 20 c-61 32 -184 60 -259 60 -85 0 -203 -30 -283 -72 -81 -42 -203
-164 -245 -245 -42 -80 -72 -198 -72 -283 0 -85 30 -203 72 -283 42 -81 164
-203 245 -245 133 -70 286 -88 427 -52 114 29 190 73 276 160 87 87 132 165
160 276 19 75 20 115 20 1401 0 1307 0 1324 -20 1363 -23 46 -82 81 -132 79
-18 -1 -76 -14 -128 -29z m-20 -465 c0 -80 -3 -145 -6 -145 -5 0 -1485 -417
-1796 -506 -17 -5 -18 6 -18 138 l0 144 903 256 c496 141 905 257 910 257 4 1
7 -64 7 -144z m-166 -1939 c105 -51 161 -144 161 -266 0 -123 -56 -214 -163
-267 -47 -23 -70 -28 -132 -28 -62 0 -85 5 -132 28 -160 79 -215 278 -118 430
80 126 246 170 384 103z m-2120 -600 c105 -51 161 -144 161 -266 0 -85 -21
-142 -74 -203 -82 -92 -237 -121 -353 -64 -160 79 -215 278 -118 430 80 126
246 170 384 103z"/>
</g>
</svg>
