<?xml version="1.0" standalone="no"?>
<!DOCTYPE svg PUBLIC "-//W3C//DTD SVG 20010904//EN"
 "http://www.w3.org/TR/2001/REC-SVG-20010904/DTD/svg10.dtd">
<svg version="1.0" xmlns="http://www.w3.org/2000/svg"
 width="512.000000pt" height="512.000000pt" viewBox="0 0 512.000000 512.000000"
 preserveAspectRatio="xMidYMid meet">

<g transform="translate(0.000000,512.000000) scale(0.100000,-0.100000)"
fill="#000000" stroke="none">
<path d="M1690 4963 c-62 -22 -142 -105 -163 -167 -33 -97 -28 -123 117 -549
74 -218 146 -417 160 -444 15 -26 139 -200 275 -385 137 -186 255 -354 261
-374 23 -69 9 -113 -93 -291 -125 -222 -152 -277 -177 -365 -43 -149 -40 -203
59 -1123 50 -462 94 -853 97 -870 10 -48 51 -122 89 -160 151 -150 412 -115
516 71 56 99 56 99 -21 687 -136 1031 -127 953 -106 976 25 27 67 27 93 -1 12
-13 94 -129 182 -258 139 -202 161 -240 161 -273 0 -21 -27 -239 -61 -485 -41
-300 -59 -467 -56 -507 8 -111 81 -213 187 -264 74 -35 191 -36 261 -2 73 35
125 86 159 155 31 62 31 65 86 632 60 621 61 642 12 758 -12 28 -119 200 -237
381 -155 238 -216 340 -219 365 -4 38 109 657 133 730 11 32 156 228 501 675
268 347 496 650 508 675 27 60 27 158 -1 221 -73 162 -290 215 -422 102 -22
-19 -227 -271 -455 -561 -227 -290 -424 -536 -436 -547 -21 -19 -38 -20 -278
-23 -182 -2 -264 0 -284 9 -32 13 -197 236 -241 324 -14 28 -71 199 -127 380
-108 347 -122 384 -169 437 -67 76 -208 109 -311 71z m177 -143 c18 -10 39
-31 49 -45 9 -14 65 -179 124 -368 59 -188 119 -367 135 -397 31 -62 172 -266
224 -323 19 -21 53 -48 75 -60 39 -21 52 -22 326 -22 298 0 317 2 382 47 15
10 221 265 458 568 394 502 435 550 474 565 109 42 217 -63 175 -171 -8 -19
-131 -186 -274 -371 -691 -896 -715 -928 -735 -981 -24 -62 -150 -730 -150
-788 1 -21 7 -55 14 -74 7 -19 110 -185 230 -368 217 -333 239 -372 251 -454
7 -48 -88 -1089 -105 -1151 -13 -47 -64 -106 -107 -123 -61 -26 -147 -11 -196
34 -31 28 -57 89 -57 134 0 24 27 243 60 487 33 245 60 464 60 488 0 24 -6 59
-14 77 -14 35 -332 502 -370 545 -30 34 -94 61 -145 61 -94 0 -183 -75 -196
-164 -5 -29 25 -281 89 -774 106 -805 105 -779 45 -846 -61 -71 -170 -84 -249
-32 -76 50 -70 20 -170 941 -49 461 -90 874 -90 920 0 94 26 208 66 287 14 29
71 132 125 228 54 96 103 197 110 223 14 58 7 136 -17 196 -9 24 -131 198
-270 387 -139 188 -262 361 -273 383 -41 79 -271 778 -271 822 0 108 124 176
217 119z"/>
<path d="M2698 4755 c-118 -38 -238 -159 -273 -277 -34 -116 -12 -265 54 -361
153 -223 465 -248 651 -51 196 207 138 535 -117 661 -69 34 -84 38 -172 40
-65 2 -111 -2 -143 -12z m245 -148 c29 -12 65 -40 92 -69 157 -175 46 -447
-190 -465 -161 -13 -297 113 -298 276 -2 211 199 341 396 258z"/>
<path d="M1046 3476 c-220 -88 -314 -130 -327 -147 -30 -38 -33 -79 -11 -140
58 -158 95 -256 140 -371 l50 -126 -47 -12 c-192 -48 -314 -267 -228 -412 37
-64 115 -103 188 -95 111 13 212 85 266 189 21 41 27 67 28 118 0 58 -8 87
-79 268 -49 124 -76 206 -70 211 11 11 496 211 511 211 9 0 103 -221 103 -242
0 -3 -17 -8 -37 -12 -123 -19 -247 -154 -260 -281 -7 -64 9 -115 50 -162 39
-45 82 -63 146 -63 160 0 314 152 313 308 -1 49 -21 108 -147 432 -80 206
-153 386 -161 398 -16 25 -70 52 -101 52 -10 0 -157 -56 -327 -124z m352 -99
c14 -37 23 -69 21 -71 -3 -3 -460 -192 -514 -212 -8 -3 -23 22 -41 72 -15 43
-24 79 -19 81 6 2 120 48 255 102 135 55 251 98 259 98 8 -1 25 -32 39 -70z
m239 -628 c24 -51 -27 -148 -98 -185 -34 -17 -101 -18 -117 -2 -28 28 -2 128
44 170 36 32 79 48 119 46 32 -2 42 -8 52 -29z m-687 -219 c47 -47 -2 -155
-92 -201 -48 -25 -83 -24 -109 2 -44 44 7 154 91 197 55 27 84 28 110 2z"/>
<path d="M3845 3375 c-14 -13 -25 -31 -25 -39 0 -9 64 -175 141 -368 78 -194
144 -360 146 -369 3 -12 -4 -18 -28 -23 -159 -31 -288 -220 -250 -364 56 -208
363 -178 473 45 46 94 45 153 -3 253 -51 105 -304 738 -298 744 3 3 27 -1 54
-8 149 -39 271 -147 325 -287 12 -30 28 -60 37 -66 26 -20 62 -15 89 13 32 31
29 47 -27 162 -96 196 -317 332 -541 332 -60 0 -72 -3 -93 -25z m331 -948 c23
-20 26 -29 20 -58 -14 -76 -84 -147 -156 -156 -75 -10 -100 40 -59 124 22 46
61 79 118 99 48 17 46 17 77 -9z"/>
</g>
</svg>
